# xmcd
#
# Track frame offsets:
#	150
#	15502
#	31079
#	42332
#	56906
#	73053
#	88878
#	101933
#	118111
#	137768
#	152652
#	166536
#	180067
#	195957
#	208300
#
# Disc length: 2916 seconds
#
# Revision: 1
# Processed by: cddbd v1.5.1PL2 Copyright (c) Steve Scherf et al.
# Submitted via: audiograbber 1.83.01
#
DISCID=c60b620f
DTITLE=Kris Robyan - It's All About Country
DYEAR=2005
DGENRE=Country
TTITLE0=Tennessee River Runs 
TTITLE1=Wave On Wave 
TTITLE2=Overnight Mail 
TTITLE3=The Dance 
TTITLE4=Senoritas 
TTITLE5=Just To See You Smile 
TTITLE6=Love Bug 
TTITLE7=Open Season On My Heart 
TTITLE8=Don't Close Your Eyes 
TTITLE9=Jessico 
TTITLE10=Kiss Me Honey Honey 
TTITLE11=Overnight Success 
TTITLE12=I Found Jesus On The Jailhouse Floor 
TTITLE13=Sometimes She Will 
TTITLE14=Rollin' In My Sweet Baby's Arms 
EXTD=
EXTT0=
EXTT1=
EXTT2=
EXTT3=
EXTT4=
EXTT5=
EXTT6=
EXTT7=
EXTT8=
EXTT9=
EXTT10=
EXTT11=
EXTT12=
EXTT13=
EXTT14=
PLAYORDER=
